STARTFONT 2.1
COMMENT Bold 14-point 3270 font
COMMENT Uses nonstandard ordering
COMMENT Copyright 1989 by Georgia Tech Research Corporation, Atlanta, GA
COMMENT 30332.  All Rights Reserved.
COMMENT  GTRC hereby grants public use of this software.  Derivative
COMMENT  works based on this software must incorporate this copyright
COMMENT  notice.
COMMENT X11 Port Copyright 1990 by Jeff Sparkes.
COMMENT Additional X11 Modifications Copyright 1993, 1994 by Paul Mattes.
COMMENT  Permission to use, copy, modify, and distribute this software and
COMMENT  its documentation for any purpose and without fee is hereby
COMMENT  granted, provided that the above copyright notice appear in all
COMMENT  copies and that both that copyright notice and this permission
COMMENT  notice appear in supporting documentation.
FONT 3270bold
SIZE 14 72 72
FONTBOUNDINGBOX 9 14 0 -3
STARTPROPERTIES 16
FONTNAME_REGISTRY ""
FOUNDRY "Misc"
FAMILY_NAME "3270"
WEIGHT_NAME "Bold"
SLANT "R"
PIXEL_SIZE 14
POINT_SIZE 140
RESOLUTION_X 72
RESOLUTION_Y 72
SPACING "C"
CHARSET_REGISTRY ""
CHARSET_ENCODING ""
AVERAGE_WIDTH 90
DEFAULT_CHAR 0
FONT_ASCENT 11
FONT_DESCENT 3
ENDPROPERTIES
CHARS 256
STARTCHAR null
ENCODING 0
SWIDTH 562 0
DWIDTH 9 0
BBX 9 14 0 -3
BITMAP
00
00
00
00
00
00
00
00
00
00
00
00
00
00
ENDCHAR
STARTCHAR nobreakspace
ENCODING 1
SWIDTH 562 0
DWIDTH 9 0
BBX 9 14 0 -3
BITMAP
00
00
00
00
00
00
00
00
00
00
00
00
00
00
ENDCHAR
STARTCHAR ff
ENCODING 2
SWIDTH 562 0
DWIDTH 9 0
BBX 9 14 0 -3
BITMAP
00
00
00
00
00
00
00
00
00
00
00
00
00
00
ENDCHAR
STARTCHAR cr
ENCODING 3
SWIDTH 562 0
DWIDTH 9 0
BBX 9 14 0 -3
BITMAP
00
00
00
00
00
00
00
00
00
00
00
00
00
00
ENDCHAR
STARTCHAR nl
ENCODING 4
SWIDTH 562 0
DWIDTH 9 0
BBX 9 14 0 -3
BITMAP
00
00
00
00
00
00
00
00
00
00
00
00
00
00
ENDCHAR
STARTCHAR em
ENCODING 5
SWIDTH 562 0
DWIDTH 9 0
BBX 9 14 0 -3
BITMAP
00
00
00
00
00
00
00
00
00
00
00
00
00
00
ENDCHAR
STARTCHAR eightones
ENCODING 6
SWIDTH 562 0
DWIDTH 9 0
BBX 8 7 1 1
BITMAP
3c
7e
ff
ff
ff
7e
3c
ENDCHAR
STARTCHAR hyphen
ENCODING 7
SWIDTH 562 0
DWIDTH 9 0
BBX 6 1 2 4
BITMAP
fc
ENDCHAR
STARTCHAR greater
ENCODING 8
SWIDTH 562 0
DWIDTH 9 0
BBX 6 9 2 0
BITMAP
c0
60
30
18
0c
18
30
60
c0
ENDCHAR
STARTCHAR less
ENCODING 9
SWIDTH 562 0
DWIDTH 9 0
BBX 6 9 2 0
BITMAP
0c
18
30
60
c0
60
30
18
0c
ENDCHAR
STARTCHAR bracketleft
ENCODING 10
SWIDTH 562 0
DWIDTH 9 0
BBX 4 11 3 -1
BITMAP
f0
c0
c0
c0
c0
c0
c0
c0
c0
c0
f0
ENDCHAR
STARTCHAR bracketright
ENCODING 11
SWIDTH 562 0
DWIDTH 9 0
BBX 4 11 3 -1
BITMAP
f0
30
30
30
30
30
30
30
30
30
f0
ENDCHAR
STARTCHAR parenright
ENCODING 12
SWIDTH 562 0
DWIDTH 9 0
BBX 4 9 3 0
BITMAP
c0
60
30
30
30
30
30
60
c0
ENDCHAR
STARTCHAR parenleft
ENCODING 13
SWIDTH 562 0
DWIDTH 9 0
BBX 4 9 3 0
BITMAP
30
60
c0
c0
c0
c0
c0
60
30
ENDCHAR
STARTCHAR braceright
ENCODING 14
SWIDTH 562 0
DWIDTH 9 0
BBX 5 11 2 -1
BITMAP
e0
30
30
30
30
18
30
30
30
30
e0
ENDCHAR
STARTCHAR braceleft
ENCODING 15
SWIDTH 562 0
DWIDTH 9 0
BBX 5 11 2 -1
BITMAP
38
60
60
60
60
c0
60
60
60
60
38
ENDCHAR
STARTCHAR space
ENCODING 16
SWIDTH 562 0
DWIDTH 9 0
BBX 9 14 0 -3
BITMAP
00
00
00
00
00
00
00
00
00
00
00
00
00
00
ENDCHAR
STARTCHAR equal
ENCODING 17
SWIDTH 562 0
DWIDTH 9 0
BBX 8 4 1 3
BITMAP
ff
00
00
ff
ENDCHAR
STARTCHAR apostrophe
ENCODING 18
SWIDTH 562 0
DWIDTH 9 0
BBX 2 3 4 7
BITMAP
c0
c0
c0
ENDCHAR
STARTCHAR quotedbl
ENCODING 19
SWIDTH 562 0
DWIDTH 9 0
BBX 5 3 2 7
BITMAP
d8
d8
d8
ENDCHAR
STARTCHAR slash
ENCODING 20
SWIDTH 562 0
DWIDTH 9 0
BBX 8 7 1 1
BITMAP
03
06
0c
18
30
60
c0
ENDCHAR
STARTCHAR backslash
ENCODING 21
SWIDTH 562 0
DWIDTH 9 0
BBX 8 7 1 1
BITMAP
c0
60
30
18
0c
06
03
ENDCHAR
STARTCHAR bar
ENCODING 22
SWIDTH 562 0
DWIDTH 9 0
BBX 2 13 4 -2
BITMAP
c0
c0
c0
c0
c0
c0
c0
c0
c0
c0
c0
c0
c0
ENDCHAR
STARTCHAR brokenbar
ENCODING 23
SWIDTH 562 0
DWIDTH 9 0
BBX 2 12 4 -2
BITMAP
c0
c0
c0
c0
c0
00
00
c0
c0
c0
c0
c0
ENDCHAR
STARTCHAR question
ENCODING 24
SWIDTH 562 0
DWIDTH 9 0
BBX 7 10 2 0
BITMAP
7c
c6
c6
0c
18
30
30
00
00
30
ENDCHAR
STARTCHAR exclam
ENCODING 25
SWIDTH 562 0
DWIDTH 9 0
BBX 2 10 4 0
BITMAP
c0
c0
c0
c0
c0
c0
c0
00
00
c0
ENDCHAR
STARTCHAR dollar
ENCODING 26
SWIDTH 562 0
DWIDTH 9 0
BBX 8 11 1 -1
BITMAP
18
18
7f
d8
d8
7e
1b
1b
fe
18
18
ENDCHAR
STARTCHAR cent
ENCODING 27
SWIDTH 562 0
DWIDTH 9 0
BBX 7 9 1 1
BITMAP
18
18
7e
d8
d8
d8
7e
18
18
ENDCHAR
STARTCHAR sterling
ENCODING 28
SWIDTH 562 0
DWIDTH 9 0
BBX 8 10 1 0
BITMAP
1c
36
30
30
fc
30
30
30
f3
fe
ENDCHAR
STARTCHAR yen
ENCODING 29
SWIDTH 562 0
DWIDTH 9 0
BBX 8 10 1 0
BITMAP
c3
66
3c
18
ff
18
18
ff
18
18
ENDCHAR
STARTCHAR paragraph
ENCODING 30
SWIDTH 562 0
DWIDTH 9 0
BBX 7 11 1 -1
BITMAP
f8
cc
cc
cc
f8
c0
cc
de
cc
cc
0c
ENDCHAR
STARTCHAR currency
ENCODING 31
SWIDTH 562 0
DWIDTH 9 0
BBX 8 9 1 0
BITMAP
c3
66
3c
66
66
66
3c
66
c3
ENDCHAR
STARTCHAR 0
ENCODING 32
SWIDTH 562 0
DWIDTH 9 0
BBX 8 10 1 0
BITMAP
3c
66
c3
c3
db
db
c3
c3
66
3c
ENDCHAR
STARTCHAR 1
ENCODING 33
SWIDTH 562 0
DWIDTH 9 0
BBX 4 10 2 0
BITMAP
30
70
f0
30
30
30
30
30
30
30
ENDCHAR
STARTCHAR 2
ENCODING 34
SWIDTH 562 0
DWIDTH 9 0
BBX 8 10 1 0
BITMAP
3e
63
c3
03
06
0c
18
30
60
ff
ENDCHAR
STARTCHAR 3
ENCODING 35
SWIDTH 562 0
DWIDTH 9 0
BBX 8 10 1 0
BITMAP
7f
03
06
0c
1c
06
03
03
c6
7c
ENDCHAR
STARTCHAR 4
ENCODING 36
SWIDTH 562 0
DWIDTH 9 0
BBX 8 10 1 0
BITMAP
0e
1e
36
66
c6
c6
ff
06
06
06
ENDCHAR
STARTCHAR 5
ENCODING 37
SWIDTH 562 0
DWIDTH 9 0
BBX 8 10 1 0
BITMAP
ff
c0
c0
fc
06
03
03
03
06
fc
ENDCHAR
STARTCHAR 6
ENCODING 38
SWIDTH 562 0
DWIDTH 9 0
BBX 8 10 1 0
BITMAP
30
60
c0
c0
fc
e6
c3
c3
66
3c
ENDCHAR
STARTCHAR 7
ENCODING 39
SWIDTH 562 0
DWIDTH 9 0
BBX 8 10 1 0
BITMAP
ff
03
06
0c
18
30
30
30
30
30
ENDCHAR
STARTCHAR 8
ENCODING 40
SWIDTH 562 0
DWIDTH 9 0
BBX 8 10 1 0
BITMAP
3c
66
66
66
3c
66
c3
c3
66
3c
ENDCHAR
STARTCHAR 9
ENCODING 41
SWIDTH 562 0
DWIDTH 9 0
BBX 8 10 1 0
BITMAP
3e
63
c3
c7
cf
7b
03
03
03
06
ENDCHAR
STARTCHAR ssharp
ENCODING 42
SWIDTH 562 0
DWIDTH 9 0
BBX 8 10 1 0
BITMAP
38
6c
cc
d8
cc
c6
c3
c3
f3
de
ENDCHAR
STARTCHAR section
ENCODING 43
SWIDTH 562 0
DWIDTH 9 0
BBX 7 12 1 -2
BITMAP
3c
60
60
f0
d8
cc
66
36
1e
0c
0c
78
ENDCHAR
STARTCHAR numbersign
ENCODING 44
SWIDTH 562 0
DWIDTH 9 0
BBX 7 6 1 3
BITMAP
6c
fe
6c
6c
fe
6c
ENDCHAR
STARTCHAR at
ENCODING 45
SWIDTH 562 0
DWIDTH 9 0
BBX 8 10 1 0
BITMAP
7e
c3
c3
df
ff
fe
c0
c0
c0
7f
ENDCHAR
STARTCHAR percent
ENCODING 46
SWIDTH 562 0
DWIDTH 9 0
BBX 8 11 1 -1
BITMAP
60
f0
63
06
0c
18
30
60
c6
0f
06
ENDCHAR
STARTCHAR underscore
ENCODING 47
SWIDTH 562 0
DWIDTH 9 0
BBX 8 1 1 -1
BITMAP
ff
ENDCHAR
STARTCHAR ampersand
ENCODING 48
SWIDTH 562 0
DWIDTH 9 0
BBX 8 10 1 -1
BITMAP
70
d8
d8
d8
70
f3
de
cc
7e
03
ENDCHAR
STARTCHAR minus
ENCODING 49
SWIDTH 562 0
DWIDTH 9 0
BBX 6 1 2 4
BITMAP
fc
ENDCHAR
STARTCHAR period
ENCODING 50
SWIDTH 562 0
DWIDTH 9 0
BBX 3 2 3 0
BITMAP
e0
e0
ENDCHAR
STARTCHAR comma
ENCODING 51
SWIDTH 562 0
DWIDTH 9 0
BBX 5 4 2 -2
BITMAP
38
38
70
e0
ENDCHAR
STARTCHAR colon
ENCODING 52
SWIDTH 562 0
DWIDTH 9 0
BBX 3 6 3 0
BITMAP
e0
e0
00
00
e0
e0
ENDCHAR
STARTCHAR plus
ENCODING 53
SWIDTH 562 0
DWIDTH 9 0
BBX 8 7 1 1
BITMAP
18
18
18
ff
18
18
18
ENDCHAR
STARTCHAR notsign
ENCODING 54
SWIDTH 562 0
DWIDTH 9 0
BBX 8 3 1 6
BITMAP
ff
03
03
ENDCHAR
STARTCHAR macron
ENCODING 55
SWIDTH 562 0
DWIDTH 9 0
BBX 8 1 1 9
BITMAP
ff
ENDCHAR
STARTCHAR degree
ENCODING 56
SWIDTH 562 0
DWIDTH 9 0
BBX 5 4 2 6
BITMAP
70
d8
d8
70
ENDCHAR
STARTCHAR periodcentered
ENCODING 57
SWIDTH 562 0
DWIDTH 9 0
BBX 3 2 4 3
BITMAP
e0
e0
ENDCHAR
STARTCHAR asciicircum
ENCODING 58
SWIDTH 562 0
DWIDTH 9 0
BBX 6 3 2 7
BITMAP
30
78
cc
ENDCHAR
STARTCHAR asciitilde
ENCODING 59
SWIDTH 562 0
DWIDTH 9 0
BBX 8 3 1 7
BITMAP
70
db
0e
ENDCHAR
STARTCHAR diaeresis
ENCODING 60
SWIDTH 562 0
DWIDTH 9 0
BBX 8 2 1 8
BITMAP
e7
e7
ENDCHAR
STARTCHAR grave
ENCODING 61
SWIDTH 562 0
DWIDTH 9 0
BBX 4 3 3 7
BITMAP
c0
60
30
ENDCHAR
STARTCHAR acute
ENCODING 62
SWIDTH 562 0
DWIDTH 9 0
BBX 4 3 3 7
BITMAP
30
60
c0
ENDCHAR
STARTCHAR cedilla
ENCODING 63
SWIDTH 562 0
DWIDTH 9 0
BBX 4 4 2 -2
BITMAP
30
30
30
e0
ENDCHAR
STARTCHAR agrave
ENCODING 64
SWIDTH 562 0
DWIDTH 9 0
BBX 8 11 1 0
BITMAP
60
30
18
00
7c
06
06
7e
c6
c6
7f
ENDCHAR
STARTCHAR egrave
ENCODING 65
SWIDTH 562 0
DWIDTH 9 0
BBX 7 11 1 0
BITMAP
60
30
18
00
7c
c6
c6
fe
c0
c0
7e
ENDCHAR
STARTCHAR igrave
ENCODING 66
SWIDTH 562 0
DWIDTH 9 0
BBX 4 11 3 0
BITMAP
c0
60
30
00
00
60
60
60
60
60
60
ENDCHAR
STARTCHAR ograve
ENCODING 67
SWIDTH 562 0
DWIDTH 9 0
BBX 7 11 1 0
BITMAP
60
30
18
00
7c
c6
c6
c6
c6
c6
7c
ENDCHAR
STARTCHAR ugrave
ENCODING 68
SWIDTH 562 0
DWIDTH 9 0
BBX 8 11 1 0
BITMAP
60
30
18
00
c6
c6
c6
c6
c6
c6
7f
ENDCHAR
STARTCHAR atilde
ENCODING 69
SWIDTH 562 0
DWIDTH 9 0
BBX 8 10 1 0
BITMAP
3b
6e
00
7c
06
06
7e
c6
c6
7f
ENDCHAR
STARTCHAR otilde
ENCODING 70
SWIDTH 562 0
DWIDTH 9 0
BBX 7 10 1 0
BITMAP
76
dc
00
7c
c6
c6
c6
c6
c6
7c
ENDCHAR
STARTCHAR ydiaeresis
ENCODING 71
SWIDTH 562 0
DWIDTH 9 0
BBX 7 13 1 -3
BITMAP
6c
00
00
c6
c6
c6
c6
66
3c
18
30
60
c0
ENDCHAR
STARTCHAR Yacute
ENCODING 72
SWIDTH 562 0
DWIDTH 9 0
BBX 8 12 1 0
BITMAP
06
0c
18
c3
66
3c
18
18
18
18
18
18
ENDCHAR
STARTCHAR yacute
ENCODING 73
SWIDTH 562 0
DWIDTH 9 0
BBX 7 14 1 -3
BITMAP
0c
18
30
00
c6
c6
c6
c6
66
3c
18
30
60
c0
ENDCHAR
STARTCHAR eacute
ENCODING 74
SWIDTH 562 0
DWIDTH 9 0
BBX 7 11 1 0
BITMAP
06
0c
18
00
7c
c6
c6
fe
c0
c0
7e
ENDCHAR
STARTCHAR onequarter
ENCODING 75
SWIDTH 562 0
DWIDTH 9 0
BBX 8 9 1 0
BITMAP
60
e0
60
60
f6
0e
1e
1f
06
ENDCHAR
STARTCHAR onehalf
ENCODING 76
SWIDTH 562 0
DWIDTH 9 0
BBX 8 9 1 0
BITMAP
60
e0
60
60
fe
03
06
0c
0f
ENDCHAR
STARTCHAR threequarters
ENCODING 77
SWIDTH 562 0
DWIDTH 9 0
BBX 8 9 1 0
BITMAP
70
d8
30
d8
76
0e
1e
1f
06
ENDCHAR
STARTCHAR udiaeresis
ENCODING 78
SWIDTH 562 0
DWIDTH 9 0
BBX 8 10 1 0
BITMAP
6c
00
00
c6
c6
c6
c6
c6
c6
7f
ENDCHAR
STARTCHAR ccedilla
ENCODING 79
SWIDTH 562 0
DWIDTH 9 0
BBX 7 9 1 -2
BITMAP
3e
60
c0
c0
c0
60
3e
18
78
ENDCHAR
STARTCHAR adiaeresis
ENCODING 80
SWIDTH 562 0
DWIDTH 9 0
BBX 8 10 1 0
BITMAP
6c
00
00
7c
06
06
7e
c6
c6
7f
ENDCHAR
STARTCHAR ediaeresis
ENCODING 81
SWIDTH 562 0
DWIDTH 9 0
BBX 7 10 1 0
BITMAP
6c
00
00
7c
c6
c6
fe
c0
c0
7e
ENDCHAR
STARTCHAR idiaeresis
ENCODING 82
SWIDTH 562 0
DWIDTH 9 0
BBX 6 10 2 0
BITMAP
cc
00
00
30
30
30
30
30
30
30
ENDCHAR
STARTCHAR odiaeresis
ENCODING 83
SWIDTH 562 0
DWIDTH 9 0
BBX 7 10 1 0
BITMAP
6c
00
00
7c
c6
c6
c6
c6
c6
7c
ENDCHAR
STARTCHAR mu
ENCODING 84
SWIDTH 562 0
DWIDTH 9 0
BBX 8 9 1 -3
BITMAP
c6
c6
c6
c6
c6
c6
ff
c0
c0
ENDCHAR
STARTCHAR acircumflex
ENCODING 85
SWIDTH 562 0
DWIDTH 9 0
BBX 8 10 1 0
BITMAP
18
3c
00
7c
06
06
7e
c6
c6
7f
ENDCHAR
STARTCHAR ecircumflex
ENCODING 86
SWIDTH 562 0
DWIDTH 9 0
BBX 7 10 1 0
BITMAP
18
3c
00
7c
c6
c6
fe
c0
c0
7e
ENDCHAR
STARTCHAR icircumflex
ENCODING 87
SWIDTH 562 0
DWIDTH 9 0
BBX 4 10 3 0
BITMAP
60
f0
00
00
60
60
60
60
60
60
ENDCHAR
STARTCHAR ocircumflex
ENCODING 88
SWIDTH 562 0
DWIDTH 9 0
BBX 6 10 2 0
BITMAP
30
78
00
78
cc
cc
cc
cc
cc
78
ENDCHAR
STARTCHAR ucircumflex
ENCODING 89
SWIDTH 562 0
DWIDTH 9 0
BBX 7 10 1 0
BITMAP
30
78
00
cc
cc
cc
cc
cc
cc
7e
ENDCHAR
STARTCHAR aacute
ENCODING 90
SWIDTH 562 0
DWIDTH 9 0
BBX 8 11 1 0
BITMAP
06
0c
18
00
7c
06
06
7e
c6
c6
7f
ENDCHAR
STARTCHAR multiply
ENCODING 91
SWIDTH 562 0
DWIDTH 9 0
BBX 6 5 2 2
BITMAP
cc
78
30
78
cc
ENDCHAR
STARTCHAR iacute
ENCODING 92
SWIDTH 562 0
DWIDTH 9 0
BBX 4 11 3 0
BITMAP
30
60
c0
00
00
60
60
60
60
60
60
ENDCHAR
STARTCHAR oacute
ENCODING 93
SWIDTH 562 0
DWIDTH 9 0
BBX 7 11 1 0
BITMAP
0c
18
30
00
7c
c6
c6
c6
c6
c6
7c
ENDCHAR
STARTCHAR uacute
ENCODING 94
SWIDTH 562 0
DWIDTH 9 0
BBX 8 11 1 0
BITMAP
0c
18
30
00
c6
c6
c6
c6
c6
c6
7f
ENDCHAR
STARTCHAR ntilde
ENCODING 95
SWIDTH 562 0
DWIDTH 9 0
BBX 8 10 1 0
BITMAP
3b
6e
00
fe
63
63
63
63
63
63
ENDCHAR
STARTCHAR Agrave
ENCODING 96
SWIDTH 562 0
DWIDTH 9 0
BBX 8 11 1 0
BITMAP
18
0c
06
18
3c
66
c3
ff
c3
c3
c3
ENDCHAR
STARTCHAR Egrave
ENCODING 97
SWIDTH 562 0
DWIDTH 9 0
BBX 8 11 1 0
BITMAP
60
30
18
ff
c0
c0
fc
c0
c0
c0
ff
ENDCHAR
STARTCHAR Igrave
ENCODING 98
SWIDTH 562 0
DWIDTH 9 0
BBX 4 11 3 0
BITMAP
c0
60
30
00
f0
60
60
60
60
60
f0
ENDCHAR
STARTCHAR Ograve
ENCODING 99
SWIDTH 562 0
DWIDTH 9 0
BBX 8 11 1 0
BITMAP
60
30
18
7e
c3
c3
c3
c3
c3
c3
7e
ENDCHAR
STARTCHAR Ugrave
ENCODING 100
SWIDTH 562 0
DWIDTH 9 0
BBX 8 11 1 0
BITMAP
60
30
18
c3
c3
c3
c3
c3
c3
c3
7e
ENDCHAR
STARTCHAR Atilde
ENCODING 101
SWIDTH 562 0
DWIDTH 9 0
BBX 8 10 1 0
BITMAP
3b
6e
00
18
3c
66
c3
ff
c3
c3
ENDCHAR
STARTCHAR Otilde
ENCODING 102
SWIDTH 562 0
DWIDTH 9 0
BBX 8 11 1 0
BITMAP
3b
6e
7e
c3
c3
c3
c3
c3
c3
c3
7e
ENDCHAR
STARTCHAR onesuperior
ENCODING 103
SWIDTH 562 0
DWIDTH 9 0
BBX 4 5 3 4
BITMAP
60
e0
60
60
f0
ENDCHAR
STARTCHAR twosuperior
ENCODING 104
SWIDTH 562 0
DWIDTH 9 0
BBX 5 5 2 4
BITMAP
70
d8
30
60
f8
ENDCHAR
STARTCHAR threesuperior
ENCODING 105
SWIDTH 562 0
DWIDTH 9 0
BBX 5 5 2 4
BITMAP
70
d8
30
d8
70
ENDCHAR
STARTCHAR ordfeminine
ENCODING 106
SWIDTH 562 0
DWIDTH 9 0
BBX 6 7 2 4
BITMAP
78
0c
7c
cc
7c
00
fc
ENDCHAR
STARTCHAR masculine
ENCODING 107
SWIDTH 562 0
DWIDTH 9 0
BBX 6 7 2 4
BITMAP
78
cc
cc
cc
78
00
fc
ENDCHAR
STARTCHAR guillemotleft
ENCODING 108
SWIDTH 562 0
DWIDTH 9 0
BBX 8 5 1 3
BITMAP
33
66
cc
66
33
ENDCHAR
STARTCHAR guillemotright
ENCODING 109
SWIDTH 562 0
DWIDTH 9 0
BBX 8 5 1 3
BITMAP
cc
66
33
66
cc
ENDCHAR
STARTCHAR exclamdown
ENCODING 110
SWIDTH 562 0
DWIDTH 9 0
BBX 2 10 4 0
BITMAP
c0
00
00
c0
c0
c0
c0
c0
c0
c0
ENDCHAR
STARTCHAR questiondown
ENCODING 111
SWIDTH 562 0
DWIDTH 9 0
BBX 7 10 2 0
BITMAP
18
00
00
18
18
30
60
c6
c6
7c
ENDCHAR
STARTCHAR Adiaeresis
ENCODING 112
SWIDTH 562 0
DWIDTH 9 0
BBX 8 11 1 0
BITMAP
66
00
18
3c
66
c3
c3
ff
c3
c3
c3
ENDCHAR
STARTCHAR Ediaeresis
ENCODING 113
SWIDTH 562 0
DWIDTH 9 0
BBX 8 11 1 0
BITMAP
66
00
ff
c0
c0
c0
fc
c0
c0
c0
ff
ENDCHAR
STARTCHAR Idiaeresis
ENCODING 114
SWIDTH 562 0
DWIDTH 9 0
BBX 6 11 2 0
BITMAP
cc
00
78
30
30
30
30
30
30
30
78
ENDCHAR
STARTCHAR Odiaeresis
ENCODING 115
SWIDTH 562 0
DWIDTH 9 0
BBX 8 11 1 0
BITMAP
66
00
7e
c3
c3
c3
c3
c3
c3
c3
7e
ENDCHAR
STARTCHAR Udiaeresis
ENCODING 116
SWIDTH 562 0
DWIDTH 9 0
BBX 8 11 1 0
BITMAP
66
00
c3
c3
c3
c3
c3
c3
c3
c3
7e
ENDCHAR
STARTCHAR Acircumflex
ENCODING 117
SWIDTH 562 0
DWIDTH 9 0
BBX 8 11 1 0
BITMAP
18
3c
00
18
3c
66
c3
ff
c3
c3
c3
ENDCHAR
STARTCHAR Ecircumflex
ENCODING 118
SWIDTH 562 0
DWIDTH 9 0
BBX 8 11 1 0
BITMAP
18
3c
00
ff
c0
c0
c0
fc
c0
c0
ff
ENDCHAR
STARTCHAR Icircumflex
ENCODING 119
SWIDTH 562 0
DWIDTH 9 0
BBX 4 11 3 0
BITMAP
60
f0
00
f0
60
60
60
60
60
60
f0
ENDCHAR
STARTCHAR Ocircumflex
ENCODING 120
SWIDTH 562 0
DWIDTH 9 0
BBX 8 11 1 0
BITMAP
18
3c
00
7e
c3
c3
c3
c3
c3
c3
7e
ENDCHAR
STARTCHAR Ucircumflex
ENCODING 121
SWIDTH 562 0
DWIDTH 9 0
BBX 8 11 1 0
BITMAP
18
3c
00
c3
c3
c3
c3
c3
c3
c3
7e
ENDCHAR
STARTCHAR Aacute
ENCODING 122
SWIDTH 562 0
DWIDTH 9 0
BBX 8 11 1 0
BITMAP
18
30
60
18
3c
66
c3
ff
c3
c3
c3
ENDCHAR
STARTCHAR Eacute
ENCODING 123
SWIDTH 562 0
DWIDTH 9 0
BBX 8 11 1 0
BITMAP
06
0c
18
ff
c0
c0
c0
fc
c0
c0
ff
ENDCHAR
STARTCHAR Iacute
ENCODING 124
SWIDTH 562 0
DWIDTH 9 0
BBX 4 11 3 0
BITMAP
30
60
c0
00
f0
60
60
60
60
60
f0
ENDCHAR
STARTCHAR Oacute
ENCODING 125
SWIDTH 562 0
DWIDTH 9 0
BBX 8 11 1 0
BITMAP
06
0c
18
7e
c3
c3
c3
c3
c3
c3
7e
ENDCHAR
STARTCHAR Uacute
ENCODING 126
SWIDTH 562 0
DWIDTH 9 0
BBX 8 11 1 0
BITMAP
06
0c
18
c3
c3
c3
c3
c3
c3
c3
7e
ENDCHAR
STARTCHAR Ntilde
ENCODING 127
SWIDTH 562 0
DWIDTH 9 0
BBX 8 10 1 0
BITMAP
3b
6e
00
c3
e3
f3
db
cf
c7
c3
ENDCHAR
STARTCHAR a
ENCODING 128
SWIDTH 562 0
DWIDTH 9 0
BBX 8 7 1 0
BITMAP
7c
06
06
7e
c6
c6
7f
ENDCHAR
STARTCHAR b
ENCODING 129
SWIDTH 562 0
DWIDTH 9 0
BBX 7 10 1 0
BITMAP
c0
c0
c0
f8
cc
c6
c6
c6
cc
f8
ENDCHAR
STARTCHAR c
ENCODING 130
SWIDTH 562 0
DWIDTH 9 0
BBX 7 7 1 0
BITMAP
3e
60
c0
c0
c0
60
3e
ENDCHAR
STARTCHAR d
ENCODING 131
SWIDTH 562 0
DWIDTH 9 0
BBX 7 10 1 0
BITMAP
06
06
06
3e
66
c6
c6
c6
66
3e
ENDCHAR
STARTCHAR e
ENCODING 132
SWIDTH 562 0
DWIDTH 9 0
BBX 7 7 1 0
BITMAP
7c
c6
c6
fe
c0
c0
7e
ENDCHAR
STARTCHAR f
ENCODING 133
SWIDTH 562 0
DWIDTH 9 0
BBX 7 10 1 0
BITMAP
1e
30
30
fc
30
30
30
30
30
30
ENDCHAR
STARTCHAR g
ENCODING 134
SWIDTH 562 0
DWIDTH 9 0
BBX 8 9 1 -2
BITMAP
3e
63
c3
c3
67
3f
03
63
3e
ENDCHAR
STARTCHAR h
ENCODING 135
SWIDTH 562 0
DWIDTH 9 0
BBX 7 10 1 0
BITMAP
c0
c0
c0
fc
e6
c6
c6
c6
c6
c6
ENDCHAR
STARTCHAR i
ENCODING 136
SWIDTH 562 0
DWIDTH 9 0
BBX 2 10 4 0
BITMAP
c0
00
00
c0
c0
c0
c0
c0
c0
c0
ENDCHAR
STARTCHAR j
ENCODING 137
SWIDTH 562 0
DWIDTH 9 0
BBX 6 12 2 -2
BITMAP
0c
00
00
0c
0c
0c
0c
0c
0c
0c
cc
78
ENDCHAR
STARTCHAR k
ENCODING 138
SWIDTH 562 0
DWIDTH 9 0
BBX 6 10 2 0
BITMAP
c0
c0
c0
cc
d8
f0
e0
f0
d8
cc
ENDCHAR
STARTCHAR l
ENCODING 139
SWIDTH 562 0
DWIDTH 9 0
BBX 3 10 4 0
BITMAP
c0
c0
c0
c0
c0
c0
c0
c0
c0
e0
ENDCHAR
STARTCHAR m
ENCODING 140
SWIDTH 562 0
DWIDTH 9 0
BBX 8 7 1 0
BITMAP
7e
db
db
db
db
db
db
ENDCHAR
STARTCHAR n
ENCODING 141
SWIDTH 562 0
DWIDTH 9 0
BBX 8 7 1 0
BITMAP
fe
63
63
63
63
63
63
ENDCHAR
STARTCHAR o
ENCODING 142
SWIDTH 562 0
DWIDTH 9 0
BBX 7 7 1 0
BITMAP
7c
c6
c6
c6
c6
c6
7c
ENDCHAR
STARTCHAR p
ENCODING 143
SWIDTH 562 0
DWIDTH 9 0
BBX 7 10 1 -3
BITMAP
f8
cc
c6
c6
c6
cc
f8
c0
c0
c0
ENDCHAR
STARTCHAR q
ENCODING 144
SWIDTH 562 0
DWIDTH 9 0
BBX 8 9 1 -2
BITMAP
3e
66
c6
c6
66
3e
06
06
07
ENDCHAR
STARTCHAR r
ENCODING 145
SWIDTH 562 0
DWIDTH 9 0
BBX 8 7 1 0
BITMAP
de
73
60
60
60
60
60
ENDCHAR
STARTCHAR s
ENCODING 146
SWIDTH 562 0
DWIDTH 9 0
BBX 7 7 1 0
BITMAP
7c
c6
60
38
0c
c6
7c
ENDCHAR
STARTCHAR t
ENCODING 147
SWIDTH 562 0
DWIDTH 9 0
BBX 6 10 2 0
BITMAP
30
30
30
fc
30
30
30
30
30
30
ENDCHAR
STARTCHAR u
ENCODING 148
SWIDTH 562 0
DWIDTH 9 0
BBX 8 7 1 0
BITMAP
c6
c6
c6
c6
c6
c6
7f
ENDCHAR
STARTCHAR v
ENCODING 149
SWIDTH 562 0
DWIDTH 9 0
BBX 8 7 1 0
BITMAP
c3
c3
66
66
3c
3c
18
ENDCHAR
STARTCHAR w
ENCODING 150
SWIDTH 562 0
DWIDTH 9 0
BBX 8 7 1 0
BITMAP
c3
c3
c3
db
db
ff
66
ENDCHAR
STARTCHAR x
ENCODING 151
SWIDTH 562 0
DWIDTH 9 0
BBX 8 7 1 0
BITMAP
c3
66
3c
18
3c
66
c3
ENDCHAR
STARTCHAR y
ENCODING 152
SWIDTH 562 0
DWIDTH 9 0
BBX 7 10 1 -3
BITMAP
c6
c6
c6
c6
66
3c
18
30
60
c0
ENDCHAR
STARTCHAR z
ENCODING 153
SWIDTH 562 0
DWIDTH 9 0
BBX 8 7 1 0
BITMAP
ff
06
0c
18
30
60
ff
ENDCHAR
STARTCHAR ae
ENCODING 154
SWIDTH 562 0
DWIDTH 9 0
BBX 8 7 1 0
BITMAP
fe
1b
3b
7f
d8
d8
7f
ENDCHAR
STARTCHAR oslash
ENCODING 155
SWIDTH 562 0
DWIDTH 9 0
BBX 8 7 1 0
BITMAP
3f
66
6e
7e
76
66
fc
ENDCHAR
STARTCHAR aring
ENCODING 156
SWIDTH 562 0
DWIDTH 9 0
BBX 8 10 1 0
BITMAP
3c
3c
00
7c
06
06
7e
c6
c6
7f
ENDCHAR
STARTCHAR division
ENCODING 157
SWIDTH 562 0
DWIDTH 9 0
BBX 7 7 1 1
BITMAP
38
38
00
fe
00
38
38
ENDCHAR
STARTCHAR fm
ENCODING 158
SWIDTH 562 0
DWIDTH 9 0
BBX 8 11 1 -1
BITMAP
ff
ff
00
1c
1c
00
00
1c
1c
38
70
ENDCHAR
STARTCHAR dup
ENCODING 159
SWIDTH 562 0
DWIDTH 9 0
BBX 8 10 1 0
BITMAP
ff
ff
00
18
db
7e
3c
7e
db
18
ENDCHAR
STARTCHAR A
ENCODING 160
SWIDTH 562 0
DWIDTH 9 0
BBX 8 9 1 0
BITMAP
18
3c
66
c3
c3
ff
c3
c3
c3
ENDCHAR
STARTCHAR B
ENCODING 161
SWIDTH 562 0
DWIDTH 9 0
BBX 8 9 1 0
BITMAP
fc
66
63
66
7c
66
63
66
fc
ENDCHAR
STARTCHAR C
ENCODING 162
SWIDTH 562 0
DWIDTH 9 0
BBX 8 9 1 0
BITMAP
1e
33
60
c0
c0
c0
60
33
1e
ENDCHAR
STARTCHAR D
ENCODING 163
SWIDTH 562 0
DWIDTH 9 0
BBX 8 9 1 0
BITMAP
fc
66
63
63
63
63
63
66
fc
ENDCHAR
STARTCHAR E
ENCODING 164
SWIDTH 562 0
DWIDTH 9 0
BBX 8 9 1 0
BITMAP
ff
c0
c0
c0
fc
c0
c0
c0
ff
ENDCHAR
STARTCHAR F
ENCODING 165
SWIDTH 562 0
DWIDTH 9 0
BBX 8 9 1 0
BITMAP
ff
c0
c0
c0
fe
c0
c0
c0
c0
ENDCHAR
STARTCHAR G
ENCODING 166
SWIDTH 562 0
DWIDTH 9 0
BBX 8 9 1 0
BITMAP
3c
66
c0
c0
c0
df
c6
66
3e
ENDCHAR
STARTCHAR H
ENCODING 167
SWIDTH 562 0
DWIDTH 9 0
BBX 8 9 1 0
BITMAP
c3
c3
c3
c3
ff
c3
c3
c3
c3
ENDCHAR
STARTCHAR I
ENCODING 168
SWIDTH 562 0
DWIDTH 9 0
BBX 4 9 3 0
BITMAP
f0
60
60
60
60
60
60
60
f0
ENDCHAR
STARTCHAR J
ENCODING 169
SWIDTH 562 0
DWIDTH 9 0
BBX 7 9 1 0
BITMAP
1e
0c
0c
0c
0c
0c
cc
cc
78
ENDCHAR
STARTCHAR K
ENCODING 170
SWIDTH 562 0
DWIDTH 9 0
BBX 8 9 1 0
BITMAP
c3
c6
cc
d8
f0
f8
cc
c6
c3
ENDCHAR
STARTCHAR L
ENCODING 171
SWIDTH 562 0
DWIDTH 9 0
BBX 8 9 1 0
BITMAP
c0
c0
c0
c0
c0
c0
c0
c0
ff
ENDCHAR
STARTCHAR M
ENCODING 172
SWIDTH 562 0
DWIDTH 9 0
BBX 8 9 1 0
BITMAP
c3
e7
ff
db
db
c3
c3
c3
c3
ENDCHAR
STARTCHAR N
ENCODING 173
SWIDTH 562 0
DWIDTH 9 0
BBX 8 9 1 0
BITMAP
c3
e3
f3
db
cf
c7
c3
c3
c3
ENDCHAR
STARTCHAR O
ENCODING 174
SWIDTH 562 0
DWIDTH 9 0
BBX 8 9 1 0
BITMAP
7e
c3
c3
c3
c3
c3
c3
c3
7e
ENDCHAR
STARTCHAR P
ENCODING 175
SWIDTH 562 0
DWIDTH 9 0
BBX 8 9 1 0
BITMAP
fc
c6
c3
c3
c6
fc
c0
c0
c0
ENDCHAR
STARTCHAR Q
ENCODING 176
SWIDTH 562 0
DWIDTH 9 0
BBX 8 11 1 -2
BITMAP
3c
66
c3
c3
c3
c3
db
7e
3c
06
03
ENDCHAR
STARTCHAR R
ENCODING 177
SWIDTH 562 0
DWIDTH 9 0
BBX 8 9 1 0
BITMAP
fe
c3
c3
c3
fe
d8
cc
c6
c3
ENDCHAR
STARTCHAR S
ENCODING 178
SWIDTH 562 0
DWIDTH 9 0
BBX 8 9 1 0
BITMAP
7e
c3
c0
70
18
0e
03
c3
7e
ENDCHAR
STARTCHAR T
ENCODING 179
SWIDTH 562 0
DWIDTH 9 0
BBX 8 9 1 0
BITMAP
ff
18
18
18
18
18
18
18
18
ENDCHAR
STARTCHAR U
ENCODING 180
SWIDTH 562 0
DWIDTH 9 0
BBX 8 9 1 0
BITMAP
c3
c3
c3
c3
c3
c3
c3
c3
7e
ENDCHAR
STARTCHAR V
ENCODING 181
SWIDTH 562 0
DWIDTH 9 0
BBX 8 9 1 0
BITMAP
c3
c3
66
66
66
3c
3c
18
18
ENDCHAR
STARTCHAR W
ENCODING 182
SWIDTH 562 0
DWIDTH 9 0
BBX 8 9 1 0
BITMAP
c3
c3
c3
c3
db
db
db
ff
66
ENDCHAR
STARTCHAR X
ENCODING 183
SWIDTH 562 0
DWIDTH 9 0
BBX 8 9 1 0
BITMAP
c3
c3
66
3c
18
3c
66
c3
c3
ENDCHAR
STARTCHAR Y
ENCODING 184
SWIDTH 562 0
DWIDTH 9 0
BBX 8 9 1 0
BITMAP
c3
66
3c
18
18
18
18
18
18
ENDCHAR
STARTCHAR Z
ENCODING 185
SWIDTH 562 0
DWIDTH 9 0
BBX 8 9 1 0
BITMAP
ff
03
06
0c
18
30
60
c0
ff
ENDCHAR
STARTCHAR AE
ENCODING 186
SWIDTH 562 0
DWIDTH 9 0
BBX 8 9 1 0
BITMAP
1f
3c
6c
cc
cf
fc
cc
cc
cf
ENDCHAR
STARTCHAR Ooblique
ENCODING 187
SWIDTH 562 0
DWIDTH 9 0
BBX 8 9 1 0
BITMAP
7e
c3
c7
cf
db
f3
e3
c3
7e
ENDCHAR
STARTCHAR Aring
ENCODING 188
SWIDTH 562 0
DWIDTH 9 0
BBX 8 11 1 0
BITMAP
3c
3c
18
3c
66
c3
c3
ff
c3
c3
c3
ENDCHAR
STARTCHAR Ccedilla
ENCODING 189
SWIDTH 562 0
DWIDTH 9 0
BBX 8 11 1 -2
BITMAP
1e
33
60
c0
c0
c0
60
33
1e
0c
7c
ENDCHAR
STARTCHAR semicolon
ENCODING 190
SWIDTH 562 0
DWIDTH 9 0
BBX 5 8 2 -2
BITMAP
38
38
00
00
38
38
70
e0
ENDCHAR
STARTCHAR asterisk
ENCODING 191
SWIDTH 562 0
DWIDTH 9 0
BBX 8 7 1 2
BITMAP
18
db
7e
3c
7e
db
18
ENDCHAR
STARTCHAR c0
ENCODING 192
SWIDTH 562 0
DWIDTH 9 0
BBX 9 14 0 -3
BITMAP
00
00
00
00
00
00
00
00
00
00
00
00
00
00
ENDCHAR
STARTCHAR c1
ENCODING 193
SWIDTH 562 0
DWIDTH 9 0
BBX 9 14 0 -3
BITMAP
00
00
00
00
00
00
00
00
00
00
00
00
00
00
ENDCHAR
STARTCHAR c2
ENCODING 194
SWIDTH 562 0
DWIDTH 9 0
BBX 9 14 0 -3
BITMAP
00
00
00
00
00
00
00
00
00
00
00
00
00
00
ENDCHAR
STARTCHAR c3
ENCODING 195
SWIDTH 562 0
DWIDTH 9 0
BBX 9 14 0 -3
BITMAP
00
00
00
00
00
00
00
00
00
00
00
00
00
00
ENDCHAR
STARTCHAR c4
ENCODING 196
SWIDTH 562 0
DWIDTH 9 0
BBX 9 14 0 -3
BITMAP
00
00
00
00
00
00
00
00
00
00
00
00
00
00
ENDCHAR
STARTCHAR c5
ENCODING 197
SWIDTH 562 0
DWIDTH 9 0
BBX 9 14 0 -3
BITMAP
00
00
00
00
00
00
00
00
00
00
00
00
00
00
ENDCHAR
STARTCHAR c6
ENCODING 198
SWIDTH 562 0
DWIDTH 9 0
BBX 9 14 0 -3
BITMAP
00
00
00
00
00
00
00
00
00
00
00
00
00
00
ENDCHAR
STARTCHAR c7
ENCODING 199
SWIDTH 562 0
DWIDTH 9 0
BBX 9 14 0 -3
BITMAP
00
00
00
00
00
00
00
00
00
00
00
00
00
00
ENDCHAR
STARTCHAR c8
ENCODING 200
SWIDTH 562 0
DWIDTH 9 0
BBX 9 14 0 -3
BITMAP
00
00
00
00
00
00
00
00
00
00
00
00
00
00
ENDCHAR
STARTCHAR c9
ENCODING 201
SWIDTH 562 0
DWIDTH 9 0
BBX 9 14 0 -3
BITMAP
00
00
00
00
00
00
00
00
00
00
00
00
00
00
ENDCHAR
STARTCHAR ca
ENCODING 202
SWIDTH 562 0
DWIDTH 9 0
BBX 9 14 0 -3
BITMAP
00
00
00
00
00
00
00
00
00
00
00
00
00
00
ENDCHAR
STARTCHAR cb
ENCODING 203
SWIDTH 562 0
DWIDTH 9 0
BBX 9 14 0 -3
BITMAP
00
00
00
00
00
00
00
00
00
00
00
00
00
00
ENDCHAR
STARTCHAR cc
ENCODING 204
SWIDTH 562 0
DWIDTH 9 0
BBX 9 14 0 -3
BITMAP
00
00
00
00
00
00
00
00
00
00
00
00
00
00
ENDCHAR
STARTCHAR cd
ENCODING 205
SWIDTH 562 0
DWIDTH 9 0
BBX 9 14 0 -3
BITMAP
00
00
00
00
00
00
00
00
00
00
00
00
00
00
ENDCHAR
STARTCHAR ce
ENCODING 206
SWIDTH 562 0
DWIDTH 9 0
BBX 9 14 0 -3
BITMAP
00
00
00
00
00
00
00
00
00
00
00
00
00
00
ENDCHAR
STARTCHAR cf
ENCODING 207
SWIDTH 562 0
DWIDTH 9 0
BBX 9 14 0 -3
BITMAP
00
00
00
00
00
00
00
00
00
00
00
00
00
00
ENDCHAR
STARTCHAR copyright
ENCODING 208
SWIDTH 562 0
DWIDTH 9 0
BBX 8 8 1 2
BITMAP
3c
66
df
f3
f3
df
66
3c
ENDCHAR
STARTCHAR registered
ENCODING 209
SWIDTH 562 0
DWIDTH 9 0
BBX 8 8 1 2
BITMAP
3c
66
fb
ff
fb
ff
66
3c
ENDCHAR
STARTCHAR boxA
ENCODING 210
SWIDTH 562 0
DWIDTH 9 0
BBX 9 12 0 -1
BITMAP
2000
5000
8800
8800
f800
8800
8800
0000
ff80
8080
8080
ff80
ENDCHAR
STARTCHAR insert
ENCODING 211
SWIDTH 562 0
DWIDTH 9 0
BBX 9 7 0 0
BITMAP
0800
1c00
3e00
7700
e380
c180
8080
ENDCHAR
STARTCHAR boxB
ENCODING 212
SWIDTH 562 0
DWIDTH 9 0
BBX 9 12 0 -1
BITMAP
0f00
0480
0480
0700
0480
0480
0f00
0000
ff80
8080
8080
ff80
ENDCHAR
STARTCHAR box6
ENCODING 213
SWIDTH 562 0
DWIDTH 9 0
BBX 9 11 0 -2
BITMAP
ff80
8080
9080
a080
a080
ac80
b280
a280
9c80
8080
ff80
ENDCHAR
STARTCHAR plusminus
ENCODING 214
SWIDTH 562 0
DWIDTH 9 0
BBX 8 9 1 0
BITMAP
18
18
18
ff
18
18
18
00
ff
ENDCHAR
STARTCHAR ETH
ENCODING 215
SWIDTH 562 0
DWIDTH 9 0
BBX 8 9 1 0
BITMAP
fc
66
63
63
fb
63
63
66
fc
ENDCHAR
STARTCHAR rightarrow
ENCODING 216
SWIDTH 562 0
DWIDTH 9 0
BBX 8 5 0 2
BITMAP
04
06
ff
06
04
ENDCHAR
STARTCHAR THORN
ENCODING 217
SWIDTH 562 0
DWIDTH 9 0
BBX 8 9 1 0
BITMAP
c0
c0
fc
c6
c6
c6
fc
c0
c0
ENDCHAR
STARTCHAR upshift
ENCODING 218
SWIDTH 562 0
DWIDTH 9 0
BBX 7 11 1 -1
BITMAP
10
28
44
82
ee
28
28
28
28
28
38
ENDCHAR
STARTCHAR human
ENCODING 219
SWIDTH 562 0
DWIDTH 9 0
BBX 7 10 1 0
BITMAP
38
28
38
10
fe
10
10
28
44
82
ENDCHAR
STARTCHAR underB
ENCODING 220
SWIDTH 562 0
DWIDTH 9 0
BBX 9 9 0 2
BITMAP
3c00
1200
1200
1c00
1200
1200
3c00
0000
ff80
ENDCHAR
STARTCHAR downshift
ENCODING 221
SWIDTH 562 0
DWIDTH 9 0
BBX 7 11 1 -1
BITMAP
38
28
28
28
28
28
ee
82
44
28
10
ENDCHAR
STARTCHAR boxquestion
ENCODING 222
SWIDTH 562 0
DWIDTH 9 0
BBX 9 13 0 -2
BITMAP
ff80
8080
9c80
a280
a280
8280
8480
8880
8880
8080
8880
8080
ff80
ENDCHAR
STARTCHAR boxsolid
ENCODING 223
SWIDTH 562 0
DWIDTH 9 0
BBX 9 13 0 -2
BITMAP
ff80
ff80
ff80
ff80
ff80
ff80
ff80
ff80
ff80
ff80
ff80
ff80
ff80
ENDCHAR
STARTCHAR e0
ENCODING 224
SWIDTH 562 0
DWIDTH 9 0
BBX 9 14 0 -3
BITMAP
00
00
00
00
00
00
00
00
00
00
00
00
00
00
ENDCHAR
STARTCHAR e1
ENCODING 225
SWIDTH 562 0
DWIDTH 9 0
BBX 9 14 0 -3
BITMAP
00
00
00
00
00
00
00
00
00
00
00
00
00
00
ENDCHAR
STARTCHAR e2
ENCODING 226
SWIDTH 562 0
DWIDTH 9 0
BBX 9 14 0 -3
BITMAP
00
00
00
00
00
00
00
00
00
00
00
00
00
00
ENDCHAR
STARTCHAR e3
ENCODING 227
SWIDTH 562 0
DWIDTH 9 0
BBX 9 14 0 -3
BITMAP
00
00
00
00
00
00
00
00
00
00
00
00
00
00
ENDCHAR
STARTCHAR e4
ENCODING 228
SWIDTH 562 0
DWIDTH 9 0
BBX 9 14 0 -3
BITMAP
00
00
00
00
00
00
00
00
00
00
00
00
00
00
ENDCHAR
STARTCHAR e5
ENCODING 229
SWIDTH 562 0
DWIDTH 9 0
BBX 9 14 0 -3
BITMAP
00
00
00
00
00
00
00
00
00
00
00
00
00
00
ENDCHAR
STARTCHAR e6
ENCODING 230
SWIDTH 562 0
DWIDTH 9 0
BBX 9 14 0 -3
BITMAP
00
00
00
00
00
00
00
00
00
00
00
00
00
00
ENDCHAR
STARTCHAR e7
ENCODING 231
SWIDTH 562 0
DWIDTH 9 0
BBX 9 14 0 -3
BITMAP
00
00
00
00
00
00
00
00
00
00
00
00
00
00
ENDCHAR
STARTCHAR e8
ENCODING 232
SWIDTH 562 0
DWIDTH 9 0
BBX 9 14 0 -3
BITMAP
00
00
00
00
00
00
00
00
00
00
00
00
00
00
ENDCHAR
STARTCHAR e9
ENCODING 233
SWIDTH 562 0
DWIDTH 9 0
BBX 9 14 0 -3
BITMAP
00
00
00
00
00
00
00
00
00
00
00
00
00
00
ENDCHAR
STARTCHAR ea
ENCODING 234
SWIDTH 562 0
DWIDTH 9 0
BBX 9 14 0 -3
BITMAP
00
00
00
00
00
00
00
00
00
00
00
00
00
00
ENDCHAR
STARTCHAR eb
ENCODING 235
SWIDTH 562 0
DWIDTH 9 0
BBX 9 14 0 -3
BITMAP
00
00
00
00
00
00
00
00
00
00
00
00
00
00
ENDCHAR
STARTCHAR ec
ENCODING 236
SWIDTH 562 0
DWIDTH 9 0
BBX 9 14 0 -3
BITMAP
00
00
00
00
00
00
00
00
00
00
00
00
00
00
ENDCHAR
STARTCHAR ed
ENCODING 237
SWIDTH 562 0
DWIDTH 9 0
BBX 9 14 0 -3
BITMAP
00
00
00
00
00
00
00
00
00
00
00
00
00
00
ENDCHAR
STARTCHAR ee
ENCODING 238
SWIDTH 562 0
DWIDTH 9 0
BBX 9 14 0 -3
BITMAP
00
00
00
00
00
00
00
00
00
00
00
00
00
00
ENDCHAR
STARTCHAR ef
ENCODING 239
SWIDTH 562 0
DWIDTH 9 0
BBX 9 14 0 -3
BITMAP
00
00
00
00
00
00
00
00
00
00
00
00
00
00
ENDCHAR
STARTCHAR badcommhi
ENCODING 240
SWIDTH 562 0
DWIDTH 9 0
BBX 9 11 0 -1
BITMAP
8000
c000
e000
7000
3800
ff80
0e00
0700
0380
0180
0080
ENDCHAR
STARTCHAR commhi
ENCODING 241
SWIDTH 562 0
DWIDTH 9 0
BBX 9 1 0 4
BITMAP
ff80
ENDCHAR
STARTCHAR commjag
ENCODING 242
SWIDTH 562 0
DWIDTH 9 0
BBX 9 5 0 0
BITMAP
fc00
0800
1000
2000
7f80
ENDCHAR
STARTCHAR commlo
ENCODING 243
SWIDTH 562 0
DWIDTH 9 0
BBX 9 1 0 0
BITMAP
ff80
ENDCHAR
STARTCHAR clockleft
ENCODING 244
SWIDTH 562 0
DWIDTH 9 0
BBX 8 13 1 -3
BITMAP
02
10
00
40
00
01
82
02
02
42
02
10
02
ENDCHAR
STARTCHAR clockright
ENCODING 245
SWIDTH 562 0
DWIDTH 9 0
BBX 6 11 0 -1
BITMAP
20
00
28
40
80
04
00
00
08
00
20
ENDCHAR
STARTCHAR lock
ENCODING 246
SWIDTH 562 0
DWIDTH 9 0
BBX 9 12 0 -1
BITMAP
8080
c180
e380
f780
7f00
3e00
3e00
7f00
f780
e380
c180
8080
ENDCHAR
STARTCHAR eth
ENCODING 247
SWIDTH 562 0
DWIDTH 9 0
BBX 7 11 1 0
BITMAP
78
30
78
0c
7e
c6
c6
c6
c6
c6
7c
ENDCHAR
STARTCHAR leftarrow
ENCODING 248
SWIDTH 562 0
DWIDTH 9 0
BBX 8 5 1 2
BITMAP
20
60
ff
60
20
ENDCHAR
STARTCHAR thorn
ENCODING 249
SWIDTH 562 0
DWIDTH 9 0
BBX 8 11 1 -2
BITMAP
c0
c0
fc
e6
c6
c6
c6
e6
fc
c0
c0
ENDCHAR
STARTCHAR keyleft
ENCODING 250
SWIDTH 562 0
DWIDTH 9 0
BBX 6 5 3 3
BITMAP
70
88
8c
88
70
ENDCHAR
STARTCHAR keyright
ENCODING 251
SWIDTH 562 0
DWIDTH 9 0
BBX 9 4 0 2
BITMAP
ff80
1d80
1d80
0180
ENDCHAR
STARTCHAR box4
ENCODING 252
SWIDTH 562 0
DWIDTH 9 0
BBX 9 11 0 -2
BITMAP
ff80
8080
8480
8c80
9480
a480
be80
8480
8480
8080
ff80
ENDCHAR
STARTCHAR underA
ENCODING 253
SWIDTH 562 0
DWIDTH 9 0
BBX 9 9 0 2
BITMAP
0800
1400
2200
2200
3e00
2200
2200
0000
ff80
ENDCHAR
STARTCHAR magcard
ENCODING 254
SWIDTH 562 0
DWIDTH 9 0
BBX 9 7 0 1
BITMAP
ff80
8080
8080
8080
ff80
8080
ff80
ENDCHAR
STARTCHAR boxhuman
ENCODING 255
SWIDTH 562 0
DWIDTH 9 0
BBX 9 13 0 -2
BITMAP
ff80
8080
9c80
9480
9c80
8880
ff80
8880
8880
9480
a280
c180
ff80
ENDCHAR
ENDFONT
